<?xml version="1.0" ?><svg data-name="Layer 1" id="Layer_1" viewBox="0 0 100 100" xmlns="http://www.w3.org/2000/svg"><title/><path d="M81.49,21.21V32.35a6.48,6.48,0,0,1-6.11,6.56,6.19,6.19,0,0,1-4.57-1.76,6.26,6.26,0,0,1-1.91-4.53,6.3,6.3,0,0,1-12.6,0,6.3,6.3,0,1,1-12.6,0,6.3,6.3,0,0,1-12.6,0,6.27,6.27,0,0,1-6.48,6.29,6.48,6.48,0,0,1-6.11-6.56V21.21A3.21,3.21,0,0,1,21.72,18H78.28A3.21,3.21,0,0,1,81.49,21.21ZM72.81,82a2.82,2.82,0,0,0,2.82-2.82V42.9h-.51a10.14,10.14,0,0,1-6.23-2.15,10.29,10.29,0,0,1-12.59,0,10.31,10.31,0,0,1-12.6,0,10.29,10.29,0,0,1-12.59,0,10.27,10.27,0,0,1-6.27,2.14h-.47V79.18A2.82,2.82,0,0,0,27.19,82H33.5V61.82H48.83V82Z"/></svg>